<?xml version="1.0" encoding="utf-8"?>
<!-- Generator: Adobe Illustrator 19.0.0, SVG Export Plug-In . SVG Version: 6.00 Build 0)  -->
<svg version="1.1" id="Layer_1" xmlns="http://www.w3.org/2000/svg" xmlns:xlink="http://www.w3.org/1999/xlink" x="0px" y="0px"
	 viewBox="-191 308 265 250" style="enable-background:new -191 308 265 250;" xml:space="preserve">
<style type="text/css">
	.st0{display:none;}
	.st1{display:inline;fill:#F1F1F1;}
	.st2{display:inline;fill:#E50000;}
	.st3{display:inline;fill:#FF0000;}
	.st4{display:inline;fill:#B20000;}
	.st5{display:inline;}
	.st6{fill:#FF0000;}
	.st7{fill:#FFFFFF;}
	.st8{fill:#E50000;}
	.st9{fill:#B20000;}
	.st10{fill:#0C0909;}
	.st11{display:inline;fill:#CC0000;}
</style>
<g id="Layer_1_1_" class="st0">
	<path id="XMLID_1_" class="st1" d="M-885.1,661.7l-275.7,48.6c-5.4,1-10.6-2.7-11.6-8.1l-61.6-349.6c-1-5.4,2.7-10.6,8.1-11.6
		l275.7-48.6c5.4-1,10.6,2.7,11.6,8.1l61.6,349.6C-876,655.5-879.7,660.7-885.1,661.7z"/>
	<path id="XMLID_16_" class="st2" d="M-1039.5,418.2"/>
	<polygon id="XMLID_14_" class="st3" points="-1099.8,380 -1162.6,406.1 -1162.4,604 -1101.2,628.6 	"/>
	<polygon id="XMLID_13_" class="st4" points="-914.5,565.7 -1101,594.1 -1101.2,628.6 	"/>
	<g id="XMLID_5_" class="st5">
		<path id="XMLID_8_" class="st6" d="M-1034.4,419.8c6.4-1.4,12.2-1.1,17.4,0.7c5.2,1.8,8.2,4.7,9,8.7c0.5,2.2,0.1,4.4-1.1,6.5
			c-1.2,2.1-2.8,3.4-4.8,3.8c-0.9,0.2-1.6,0.2-2.3,0c-0.6-0.2-2.4-1-5.3-2.3c-2.5-1.2-4.9-1.5-7.3-1s-4.1,1.9-5.2,4.1
			c-1.1,2.3-1.4,4.9-0.7,7.8c0.9,4,2.8,6.5,5.9,7.5c0.8,0.3,3,0.3,6.6,0c2.9-0.2,4.7,1.6,5.6,5.4c0.9,4.2,0,7.6-2.6,10.2
			c-1.2,1.2-3.6,2.4-7.2,3.8c-2.1,0.8-2.7,3.4-1.7,7.6c1.1,5.1,3.7,10,7.7,14.7c3.7,4.3,7.9,7.3,12.7,9.1c4.4,1.7,8.6,2.1,12.7,1.2
			c5.5-1.2,10-4.1,13.5-8.6c3.1-4.1,4.1-8.7,3-13.8c-0.5-2.4-1.8-4.4-3.9-5.8c-2.1-1.4-4.4-1.8-6.8-1.3c-3.8,0.8-6.5,4.1-8.1,9.9
			c-0.7,2.5-1.7,3.9-3,4.2c-1.7,0.4-3.3-0.4-5-2.3c-1.7-1.9-2.8-4.3-3.4-7.2c-1.3-6.2-0.5-12.2,2.4-17.9c2.9-5.7,7.8-10.9,14.7-15.6
			c5.5-3.8,8.8-6.6,9.9-8.3c1.3-2,1.7-3.9,1.3-5.7c-0.2-1-0.7-1.8-1.5-2.5c-0.8-0.6-1.6-0.8-2.5-0.7c-0.4,0.1-1.1,0.5-2.3,1.4
			c-0.3,0.2-0.6,0.3-0.9,0.4c-0.8,0.2-1.5,0-2.2-0.5c-0.7-0.5-1.2-1.2-1.4-2.1c-0.5-2.2,0-4.5,1.5-6.8c1.3-2.1,3.2-4.1,5.8-5.7
			c2.5-1.7,5.2-2.8,8-3.4c5.1-1.1,9.8-0.6,14.3,1.5c2.5,1.2,4.7,3,6.5,5.4c1.8,2.5,3.1,5.2,3.7,8.2c1,4.4,0.5,9-1.2,13.7
			s-4.7,8.9-8.8,12.7c-2.9,2.8-4.2,4.9-3.9,6.4c0.2,1.1,1.6,2.1,4.2,3.2c2.4,1,4.4,2.6,6.2,4.8c1.7,2.2,2.9,4.7,3.5,7.6
			c1,4.8,0.4,10-1.8,15.7c-3.3,8.5-9.5,15.9-18.6,22.1c-7.6,5.2-16.6,8.9-27,11.1c-13.7,2.9-26,2.6-37-1
			c-7.9-2.5-14.6-7.2-20.1-14.2c-3.6-4.5-6-9.6-7.2-15.3c-1.3-6.2-0.6-11.8,2-17c1.6-3.1,3.4-5.6,5.5-7.4c1.5-1.3,2.1-2.5,1.9-3.4
			c-0.1-0.5-0.5-1.1-1.1-1.8c-3.9-4.8-6.3-9-7.1-12.7c-0.8-3.8-0.6-7.7,0.5-11.8c1.2-4.1,3.1-7.8,5.9-11c2.6-3,5.8-5.6,9.6-7.8
			C-1042.2,422.2-1038.3,420.6-1034.4,419.8z"/>
	</g>
	<g id="XMLID_2_" class="st5">
		<g id="XMLID_113_">
			<path id="XMLID_124_" class="st7" d="M-1127,496.6"/>
			<path id="XMLID_122_" class="st7" d="M-1151.3,518.4v-8.6l40.9,10.3v8.7l-27.1,8l27.1,8.1v8.8l-40.9,10.3V555l26.2-6.2l-26.2-7.8
				v-8.6l26.2-7.8L-1151.3,518.4z"/>
			<path id="XMLID_119_" class="st7" d="M-1118.7,484.8v14.6l8.3,2.7v8.8l-40.9-14.2V487l40.9-14v9.2L-1118.7,484.8z M-1127,496.6
				v-9.2l-14.1,4.5L-1127,496.6z"/>
			<path id="XMLID_117_" class="st7" d="M-1110.4,468.3h-40.9V444h8.6v15.9h8.6v-14h8.3v13.9h15.3L-1110.4,468.3L-1110.4,468.3z"/>
			<polygon id="XMLID_116_" class="st7" points="-1110.4,528.8 -1125.1,524.6 -1151.3,532.4 -1137.5,536.8 			"/>
			<rect id="XMLID_115_" x="-1134" y="445.9" class="st7" width="8.3" height="14"/>
			<polygon id="XMLID_114_" class="st7" points="-1119.5,499.4 -1127.5,496.6 -1128,487.5 -1119.5,484.8 			"/>
		</g>
	</g>
</g>
<path id="XMLID_89_" class="st8" d="M-59.5,346.8"/>
<polygon id="XMLID_87_" class="st9" points="65.6,494.4 -120.9,522.8 -121.1,557.3 "/>
<polygon id="XMLID_88_" class="st6" points="-119.8,308.7 -182.6,334.8 -182.4,532.7 -121.1,557.3 "/>
<g id="XMLID_83_">
	<path id="XMLID_84_" class="st6" d="M-59.9,327c5.5-1.2,10.6-1,15.1,0.6c4.5,1.6,7.1,4.1,7.9,7.5c0.4,1.9,0.1,3.8-0.9,5.7
		c-1,1.8-2.4,3-4.1,3.3c-0.8,0.2-1.4,0.2-2,0c-0.6-0.2-2.1-0.8-4.6-2c-2.2-1-4.3-1.3-6.3-0.9s-3.5,1.6-4.5,3.6c-1,2-1.2,4.2-0.7,6.7
		c0.7,3.5,2.5,5.6,5.2,6.5c0.7,0.2,2.6,0.2,5.7,0c2.5-0.2,4.1,1.4,4.8,4.7c0.8,3.6,0,6.6-2.3,8.9c-1,1-3.1,2.1-6.2,3.3
		c-1.8,0.7-2.3,2.9-1.5,6.7c0.9,4.4,3.2,8.7,6.7,12.8c3.2,3.7,6.9,6.4,11.1,7.9c3.8,1.5,7.5,1.8,11,1c4.8-1,8.7-3.5,11.7-7.5
		c2.7-3.6,3.6-7.6,2.6-12c-0.5-2.1-1.6-3.8-3.4-5s-3.8-1.6-5.9-1.1c-3.3,0.7-5.6,3.6-7,8.6c-0.6,2.2-1.5,3.4-2.6,3.6
		c-1.4,0.3-2.9-0.4-4.3-2c-1.4-1.7-2.4-3.8-3-6.3c-1.2-5.4-0.5-10.6,2.1-15.6c2.5-5,6.8-9.5,12.8-13.6c4.8-3.3,7.7-5.7,8.6-7.2
		c1.1-1.7,1.5-3.4,1.1-5c-0.2-0.9-0.6-1.6-1.3-2.1s-1.4-0.7-2.2-0.6c-0.3,0.1-1,0.5-2,1.2c-0.2,0.1-0.5,0.2-0.8,0.3
		c-0.7,0.1-1.3,0-1.9-0.5c-0.6-0.4-1-1.1-1.2-1.9c-0.4-1.9,0-3.9,1.3-5.9c1.1-1.9,2.8-3.5,5-5s4.5-2.4,6.9-2.9
		c4.4-0.9,8.6-0.5,12.4,1.3c2.2,1,4.1,2.6,5.6,4.7c1.6,2.1,2.7,4.5,3.2,7.1c0.8,3.9,0.5,7.8-1.1,11.9c-1.5,4.1-4.1,7.8-7.6,11
		c-2.5,2.4-3.7,4.2-3.4,5.5c0.2,0.9,1.4,1.9,3.7,2.8c2.1,0.9,3.8,2.2,5.4,4.2c1.5,1.9,2.5,4.1,3.1,6.6c0.9,4.2,0.4,8.7-1.6,13.7
		c-2.9,7.4-8.3,13.8-16.2,19.3c-6.6,4.5-14.4,7.7-23.5,9.7c-11.9,2.6-22.6,2.3-32.2-0.8c-6.9-2.2-12.7-6.3-17.5-12.3
		c-3.1-3.9-5.2-8.4-6.3-13.3c-1.1-5.4-0.6-10.3,1.8-14.8c1.4-2.7,3-4.9,4.8-6.5c1.3-1.2,1.9-2.1,1.7-2.9c-0.1-0.4-0.4-0.9-1-1.6
		c-3.4-4.1-5.5-7.8-6.2-11.1c-0.7-3.3-0.6-6.7,0.5-10.3c1-3.6,2.7-6.8,5.1-9.5c2.2-2.6,5-4.8,8.4-6.8
		C-66.7,329.1-63.3,327.7-59.9,327z"/>
</g>
<g id="XMLID_82_">
	<path id="XMLID_130_" class="st10" d="M-55,462.4l3.7-18.1h7.6l-6.8,28.8h-8l-4.3-16.4l-4.2,16.4h-8l-6.8-28.8h7.7l3.7,18.1
		l4.4-18.1h6.5L-55,462.4z"/>
	<path id="XMLID_132_" class="st10" d="M-23.4,467.7H-34l-1.8,5.4h-8.2l11.7-28.8h7.3l11.8,28.8h-8.3L-23.4,467.7z M-32.1,462.4h6.9
		l-3.4-10L-32.1,462.4z"/>
	<path id="XMLID_135_" class="st10" d="M9.2,461.6H-3.2v11.5h-7.7v-28.8h21.4v5.4H-3.2v6.6H9.2V461.6z"/>
</g>
<g id="wall_x2B_floor" class="st0">
	<path id="XMLID_169_" class="st1" d="M-538,623.9l-218.1,38.5c-5.4,1-10.6-2.7-11.6-8.1l-51.5-291.9c-1-5.4,2.7-10.6,8.1-11.6
		l218.1-38.5c5.4-1,10.6,2.7,11.6,8.1l51.5,291.9C-528.9,617.8-532.5,622.9-538,623.9z"/>
	<polygon id="XMLID_168_" class="st3" points="-711.1,392.6 -764,414.6 -763.9,581.3 -712.3,602 	"/>
	<polygon id="XMLID_167_" class="st11" points="-595.2,562.6 -712.2,580.4 -712.3,602 	"/>
	<text transform="matrix(1 0 0 1 -695.0272 538.4162)" class="st5" style="font-family:'Roboto-Light'; font-size:21px;">Wall and Floor</text>
	<text transform="matrix(1 0 0 1 -695.0272 560.0162)" class="st5" style="font-family:'Roboto-Regular'; font-size:18px;">3D tile visualizer</text>
</g>
</svg>
